<svg id="Capa_1" enable-background="new 0 0 512 512" height="512" viewBox="0 0 512 512" width="512" xmlns="http://www.w3.org/2000/svg"><circle cx="256" cy="256" fill="#f1f1f1" r="256"/><path d="m257.518 161.977h199.953c13.356 28.555 20.81 60.414 20.81 94.023 0 122.764-99.518 222.282-222.282 222.282-4.915 0-9.797-.162-14.631-.475l-21.031-125.859" fill="#fcbd00"/><path d="m323.52 293.593c3.003-3.606 10.492 15.122 12.892 11.156.336-.557.673-1.124 1.008-1.693l-96.052 174.749c-115.946-7.534-207.65-103.957-207.65-221.805 0-47.487 14.886-91.495 40.264-127.609l99.611 172.917" fill="#16a663"/><path d="m457.472 161.977-186.546 49.689-11.17-76.517z" fill="#fd9f37"/><path d="m457.472 161.977h-200.034c-1.495-.023-3.003-.012-4.51.034l-85.085 126.717c1.611 4.359 3.536 8.557 5.75 12.58l-6.457-11.211-93.154-161.707c40.207-57.26 106.741-94.672 182.018-94.672 89.154 0 166.054 52.495 201.472 128.259z" fill="#ed402d"/><circle cx="256" cy="256" fill="#4192cf" r="88.116"/><path d="m241.369 477.807 29.981-145.955 65.062-27.101z" fill="#12945a"/><path d="m185.558 226.738-17.715 61.99-.707 1.368-93.154-161.706z" fill="#e1382a"/><path d="m256 350.602c-52.164 0-94.602-42.438-94.602-94.602s42.439-94.603 94.602-94.603 94.603 42.439 94.603 94.603-42.44 94.602-94.603 94.602zm0-169.079c-41.067 0-74.476 33.41-74.476 74.477s33.41 74.476 74.476 74.476 74.477-33.41 74.477-74.476c-.001-41.067-33.41-74.477-74.477-74.477z" fill="#fff"/></svg>