<?xml version="1.0" encoding="UTF-8"?>
<!-- Generator: Adobe Illustrator 25.4.1, SVG Export Plug-In . SVG Version: 6.00 Build 0)  -->
<svg xmlns="http://www.w3.org/2000/svg" xmlns:xlink="http://www.w3.org/1999/xlink" version="1.1" id="Capa_1" x="0px" y="0px" viewBox="0 0 512 512" style="enable-background:new 0 0 512 512;" xml:space="preserve" width="512" height="512">
<g>
	<g>
		
			<radialGradient id="SVGID_1_" cx="-1203.7484" cy="11801.9004" r="0" gradientTransform="matrix(1 0 0 -1 1258.4413 11925)" gradientUnits="userSpaceOnUse">
			<stop offset="0" style="stop-color:#FFF339"/>
			<stop offset="0.2949" style="stop-color:#FF9800"/>
			<stop offset="0.4315" style="stop-color:#FF5D30"/>
			<stop offset="0.5302" style="stop-color:#FF3450"/>
			<stop offset="0.7493" style="stop-color:#FF0D6F"/>
			<stop offset="0.7648" style="stop-color:#FF0B71"/>
			<stop offset="0.8801" style="stop-color:#FD007D"/>
			<stop offset="0.9528" style="stop-color:#F40082"/>
		</radialGradient>
		<path style="fill:url(#SVGID_1_);" d="M54.693,123.099L54.693,123.099L54.693,123.099z"/>
		
			<radialGradient id="SVGID_00000020397148730791013850000003470330136367510408_" cx="-1203.7484" cy="11801.9004" r="0" gradientTransform="matrix(1 0 0 -1 1258.4413 11925)" gradientUnits="userSpaceOnUse">
			<stop offset="0" style="stop-color:#D30082"/>
			<stop offset="1" style="stop-color:#FF0D6F;stop-opacity:0"/>
		</radialGradient>
		<path style="opacity:0.67;fill:url(#SVGID_00000020397148730791013850000003470330136367510408_);enable-background:new    ;" d="    M54.693,123.099L54.693,123.099L54.693,123.099z"/>
		
			<radialGradient id="SVGID_00000149364858618044704420000014761312063868354983_" cx="-1203.7484" cy="11801.9004" r="0" gradientTransform="matrix(1 0 0 -1 1258.4413 11925)" gradientUnits="userSpaceOnUse">
			<stop offset="0" style="stop-color:#FFDD00;stop-opacity:0.6"/>
			<stop offset="0.0837" style="stop-color:#FFD800;stop-opacity:0.5244"/>
			<stop offset="0.1822" style="stop-color:#FFCA00;stop-opacity:0.4353"/>
			<stop offset="0.2884" style="stop-color:#FFB200;stop-opacity:0.3394"/>
			<stop offset="0.3998" style="stop-color:#FF9100;stop-opacity:0.2388"/>
			<stop offset="0.5154" style="stop-color:#FF6612;stop-opacity:0.1343"/>
			<stop offset="0.6329" style="stop-color:#FF302B;stop-opacity:0.0282"/>
			<stop offset="0.664" style="stop-color:#FF1F30;stop-opacity:0"/>
		</radialGradient>
		<path style="fill:url(#SVGID_00000149364858618044704420000014761312063868354983_);" d="M54.693,123.099L54.693,123.099    L54.693,123.099z"/>
	</g>
	<g>
		
			<radialGradient id="SVGID_00000155130407744015141290000014216578850388484780_" cx="54.6928" cy="11269.0107" r="0" gradientTransform="matrix(1 0 0 -1 0 11392.1104)" gradientUnits="userSpaceOnUse">
			<stop offset="0.1528" style="stop-color:#AF0611"/>
			<stop offset="0.2061" style="stop-color:#ED1E32;stop-opacity:0.5541"/>
			<stop offset="0.2495" style="stop-color:#FF2D47;stop-opacity:0.1914"/>
			<stop offset="0.2724" style="stop-color:#FF3450;stop-opacity:0"/>
		</radialGradient>
		<path style="fill:url(#SVGID_00000155130407744015141290000014216578850388484780_);" d="M54.693,123.099L54.693,123.099    L54.693,123.099z"/>
		
			<radialGradient id="SVGID_00000029735427693579884120000008695121618190734768_" cx="54.6928" cy="11269.0107" r="0" gradientTransform="matrix(1 0 0 -1 0 11392.1104)" gradientUnits="userSpaceOnUse">
			<stop offset="0.1129" style="stop-color:#AF0611"/>
			<stop offset="0.1893" style="stop-color:#ED1E32;stop-opacity:0.5541"/>
			<stop offset="0.2515" style="stop-color:#FF2D47;stop-opacity:0.1914"/>
			<stop offset="0.2843" style="stop-color:#FF3450;stop-opacity:0"/>
		</radialGradient>
		<path style="fill:url(#SVGID_00000029735427693579884120000008695121618190734768_);" d="M54.693,123.099L54.693,123.099    L54.693,123.099z"/>
	</g>
	<g>
		
			<radialGradient id="SVGID_00000128450487462362747170000009631835288379483282_" cx="-800.7307" cy="11825.79" r="578.393" fx="-780.043" fy="11815.5654" gradientTransform="matrix(1 0 0 -1 1258.4413 11925)" gradientUnits="userSpaceOnUse">
			<stop offset="0" style="stop-color:#FFF339"/>
			<stop offset="0.2949" style="stop-color:#FF9800"/>
			<stop offset="0.4315" style="stop-color:#FF5D30"/>
			<stop offset="0.5302" style="stop-color:#FF3450"/>
			<stop offset="0.7493" style="stop-color:#FF0D6F"/>
			<stop offset="0.7648" style="stop-color:#FF0B71"/>
			<stop offset="0.8801" style="stop-color:#FD007D"/>
			<stop offset="0.9528" style="stop-color:#F40082"/>
		</radialGradient>
		<path style="fill:url(#SVGID_00000128450487462362747170000009631835288379483282_);" d="M460.362,100.81    c-19.689-25.881-43.836-47.18-70.955-63.401c-1.238-0.743-2.848-0.495-3.963,0.495l0,0c-1.486,1.486-1.114,3.839,0.495,4.953    c50.275,32.568,89.034,85.072,98.074,155.16c18.575,142.405-80.862,261.283-220.79,261.655    C109.426,460.167,15.81,324.201,40.328,202.103c1.238-6.068,0.619-12.012,2.6-17.832c1.114-21.423,9.287-55.105,26.871-89.53    c-17.708,9.163-40.245,38.14-51.39,64.887C2.312,198.265-3.26,244.454,1.817,288.413c0.371,3.343,0.743,6.563,1.114,9.906    c20.68,121.107,126.184,213.237,253.11,212.989c141.415-0.248,256.577-116.277,255.834-257.816    C511.628,196.283,492.435,143.408,460.362,100.81z"/>
		
			<radialGradient id="SVGID_00000029735531867600321920000000167616993391747214_" cx="-1216.0879" cy="11775.8584" r="334.0578" fx="-1204.1394" fy="11769.9531" gradientTransform="matrix(1 0 0 -1 1258.4413 11925)" gradientUnits="userSpaceOnUse">
			<stop offset="0" style="stop-color:#D30082"/>
			<stop offset="1" style="stop-color:#FF0D6F;stop-opacity:0"/>
		</radialGradient>
		<path style="opacity:0.67;fill:url(#SVGID_00000029735531867600321920000000167616993391747214_);enable-background:new    ;" d="    M460.362,100.81c-19.689-25.881-43.836-47.18-70.955-63.401c-1.238-0.743-2.848-0.495-3.963,0.495l0,0    c-1.486,1.486-1.114,3.839,0.495,4.953c50.275,32.568,89.034,85.072,98.074,155.16c18.575,142.405-80.862,261.283-220.79,261.655    C109.426,460.167,15.81,324.201,40.328,202.103c1.238-6.068,0.619-12.012,2.6-17.832c1.114-21.423,9.287-55.105,26.871-89.53    c-17.708,9.163-40.245,38.14-51.39,64.887C2.312,198.265-3.26,244.454,1.817,288.413c0.371,3.343,0.743,6.563,1.114,9.906    c20.68,121.107,126.184,213.237,253.11,212.989c141.415-0.248,256.577-116.277,255.834-257.816    C511.628,196.283,492.435,143.408,460.362,100.81z"/>
		
			<radialGradient id="SVGID_00000043437730337174877040000000543247466124866947_" cx="-751.0666" cy="11828.8848" r="633.6386" fx="-728.4028" fy="11817.6826" gradientTransform="matrix(1 0 0 -1 1258.4413 11925)" gradientUnits="userSpaceOnUse">
			<stop offset="0" style="stop-color:#FFDD00;stop-opacity:0.6"/>
			<stop offset="0.0837" style="stop-color:#FFD800;stop-opacity:0.5244"/>
			<stop offset="0.1822" style="stop-color:#FFCA00;stop-opacity:0.4353"/>
			<stop offset="0.2884" style="stop-color:#FFB200;stop-opacity:0.3394"/>
			<stop offset="0.3998" style="stop-color:#FF9100;stop-opacity:0.2388"/>
			<stop offset="0.5154" style="stop-color:#FF6612;stop-opacity:0.1343"/>
			<stop offset="0.6329" style="stop-color:#FF302B;stop-opacity:0.0282"/>
			<stop offset="0.664" style="stop-color:#FF1F30;stop-opacity:0"/>
		</radialGradient>
		<path style="fill:url(#SVGID_00000043437730337174877040000000543247466124866947_);" d="M460.362,100.81    c-19.689-25.881-43.836-47.18-70.955-63.401c-1.238-0.743-2.848-0.495-3.963,0.495l0,0c-1.486,1.486-1.114,3.839,0.495,4.953    c50.275,32.568,89.034,85.072,98.074,155.16c18.575,142.405-80.862,261.283-220.79,261.655    C109.426,460.167,15.81,324.201,40.328,202.103c1.238-6.068,0.619-12.012,2.6-17.832c1.114-21.423,9.287-55.105,26.871-89.53    c-17.708,9.163-40.245,38.14-51.39,64.887C2.312,198.265-3.26,244.454,1.817,288.413c0.371,3.343,0.743,6.563,1.114,9.906    c20.68,121.107,126.184,213.237,253.11,212.989c141.415-0.248,256.577-116.277,255.834-257.816    C511.628,196.283,492.435,143.408,460.362,100.81z"/>
	</g>
	<g>
		
			<radialGradient id="SVGID_00000131341440389229501680000011891925779884510870_" cx="-987.9011" cy="11624.1025" r="851.3257" gradientTransform="matrix(1 0 0 -1 1258.4413 11925)" gradientUnits="userSpaceOnUse">
			<stop offset="0.1528" style="stop-color:#AF0611"/>
			<stop offset="0.2061" style="stop-color:#ED1E32;stop-opacity:0.5541"/>
			<stop offset="0.2495" style="stop-color:#FF2D47;stop-opacity:0.1914"/>
			<stop offset="0.2724" style="stop-color:#FF3450;stop-opacity:0"/>
		</radialGradient>
		<path style="fill:url(#SVGID_00000131341440389229501680000011891925779884510870_);" d="M460.362,100.81    c-19.689-25.881-43.836-47.18-70.955-63.401c-1.238-0.743-2.848-0.495-3.963,0.495l0,0c-1.486,1.486-1.114,3.839,0.495,4.953    c50.275,32.568,89.034,85.072,98.074,155.16c18.575,142.405-80.862,261.283-220.79,261.655    C109.426,460.167,15.81,324.201,40.328,202.103c1.238-6.068,0.619-12.012,2.6-17.832c1.114-21.423,9.287-55.105,26.871-89.53    c-17.708,9.163-40.245,38.14-51.39,64.887C2.312,198.265-3.26,244.454,1.817,288.413c0.371,3.343,0.743,6.563,1.114,9.906    c20.68,121.107,126.184,213.237,253.11,212.989c141.415-0.248,256.577-116.277,255.834-257.816    C511.628,196.283,492.435,143.408,460.362,100.81z"/>
		
			<radialGradient id="SVGID_00000155137639158830084340000018377521752172742786_" cx="-1054.5012" cy="11634.3818" r="857.2518" gradientTransform="matrix(1 0 0 -1 1258.4413 11925)" gradientUnits="userSpaceOnUse">
			<stop offset="0.1129" style="stop-color:#AF0611"/>
			<stop offset="0.1893" style="stop-color:#ED1E32;stop-opacity:0.5541"/>
			<stop offset="0.2515" style="stop-color:#FF2D47;stop-opacity:0.1914"/>
			<stop offset="0.2843" style="stop-color:#FF3450;stop-opacity:0"/>
		</radialGradient>
		<path style="fill:url(#SVGID_00000155137639158830084340000018377521752172742786_);" d="M460.362,100.81    c-19.689-25.881-43.836-47.18-70.955-63.401c-1.238-0.743-2.848-0.495-3.963,0.495l0,0c-1.486,1.486-1.114,3.839,0.495,4.953    c50.275,32.568,89.034,85.072,98.074,155.16c18.575,142.405-80.862,261.283-220.79,261.655    C109.426,460.167,15.81,324.201,40.328,202.103c1.238-6.068,0.619-12.012,2.6-17.832c1.114-21.423,9.287-55.105,26.871-89.53    c-17.708,9.163-40.245,38.14-51.39,64.887C2.312,198.265-3.26,244.454,1.817,288.413c0.371,3.343,0.743,6.563,1.114,9.906    c20.68,121.107,126.184,213.237,253.11,212.989c141.415-0.248,256.577-116.277,255.834-257.816    C511.628,196.283,492.435,143.408,460.362,100.81z"/>
	</g>
	<g>
		
			<radialGradient id="SVGID_00000052090364346888603330000012215338440813182911_" cx="-900.5186" cy="11622.0195" r="561.7865" fx="-880.4249" fy="11612.0879" gradientTransform="matrix(0.9589 0 0 -0.9589 1308.9861 11226.8125)" gradientUnits="userSpaceOnUse">
			<stop offset="0" style="stop-color:#FF9800"/>
			<stop offset="0.295" style="stop-color:#FF7232"/>
			<stop offset="0.4846" style="stop-color:#FF5B50"/>
			<stop offset="0.626" style="stop-color:#FF4E5E"/>
			<stop offset="0.7365" style="stop-color:#FF3E55"/>
			<stop offset="0.8428" style="stop-color:#FF3450"/>
		</radialGradient>
		<path style="fill:url(#SVGID_00000052090364346888603330000012215338440813182911_);" d="M490.33,190.959    c-8.297-74.546-50.152-125.441-103.646-155.16c-8.916-4.953-20.184-2.848-26.624,5.077L359.936,41    c60.925,37.521,99.312,104.018,101.294,173.363c2.353,84.329-66.869,151.569-146.616,155.408    c-57.953,2.848-112.562-25.138-139.31-81.233c-5.944-12.507-10.278-25.138-12.507-40.493    C150.166,162.849,207.5,90.16,260.128,72.081c-28.357-24.766-99.56-23.033-152.436,15.85    c-38.14,27.986-62.906,70.583-71.079,121.354c-6.192,38.759-0.371,79.004,14.984,114.915    c15.603,36.654,40.988,68.974,73.06,92.749c34.673,25.881,76.527,40.864,119.621,44.084c6.315,0.495,12.755,0.743,19.07,0.743    C432.624,462.024,506.18,333.736,490.33,190.959z"/>
		
			<radialGradient id="SVGID_00000170257145694286909760000008484314921343100820_" cx="-900.5186" cy="11601.3711" r="532.9333" fx="-881.4573" fy="11591.9502" gradientTransform="matrix(0.9589 0 0 -0.9589 1308.9861 11226.8125)" gradientUnits="userSpaceOnUse">
			<stop offset="0.0841" style="stop-color:#FFDE00"/>
			<stop offset="0.2081" style="stop-color:#FFD600;stop-opacity:0.832"/>
			<stop offset="0.4033" style="stop-color:#FFBF00;stop-opacity:0.5677"/>
			<stop offset="0.6437" style="stop-color:#FF9B00;stop-opacity:0.242"/>
			<stop offset="0.8224" style="stop-color:#FF7C00;stop-opacity:0"/>
		</radialGradient>
		<path style="fill:url(#SVGID_00000170257145694286909760000008484314921343100820_);" d="M490.33,190.959    c-8.297-74.546-50.152-125.441-103.646-155.16c-8.916-4.953-20.184-2.848-26.624,5.077L359.936,41    c60.925,37.521,99.312,104.018,101.294,173.363c2.353,84.329-66.869,151.569-146.616,155.408    c-57.953,2.848-112.562-25.138-139.31-81.233c-5.944-12.507-10.278-25.138-12.507-40.493    C150.166,162.849,207.5,90.16,260.128,72.081c-28.357-24.766-99.56-23.033-152.436,15.85    c-38.14,27.986-62.906,70.583-71.079,121.354c-6.192,38.759-0.371,79.004,14.984,114.915    c15.603,36.654,40.988,68.974,73.06,92.749c34.673,25.881,76.527,40.864,119.621,44.084c6.315,0.495,12.755,0.743,19.07,0.743    C432.624,462.024,506.18,333.736,490.33,190.959z"/>
	</g>
	<g>
		
			<radialGradient id="SVGID_00000161596331224247472340000006550367725205918081_" cx="-6401.8813" cy="7300.8516" r="268.2548" gradientTransform="matrix(0.2371 0.9291 0.9696 -0.2474 -5241.5376 8015.2817)" gradientUnits="userSpaceOnUse">
			<stop offset="0.3634" style="stop-color:#FF3450"/>
			<stop offset="0.4111" style="stop-color:#FF424A;stop-opacity:0.7895"/>
			<stop offset="0.5902" style="stop-color:#FF7232;stop-opacity:0"/>
		</radialGradient>
		<path style="opacity:0.53;fill:url(#SVGID_00000161596331224247472340000006550367725205918081_);enable-background:new    ;" d="    M490.33,190.959c-8.297-74.546-50.152-125.441-103.646-155.16c-8.916-4.953-20.184-2.848-26.624,5.077L359.936,41    c60.925,37.521,99.312,104.018,101.294,173.363c2.353,84.329-66.869,151.569-146.616,155.408    c-57.953,2.848-112.562-25.138-139.31-81.233c-5.944-12.507-10.278-25.138-12.507-40.493    C150.166,162.849,207.5,90.16,260.128,72.081c-28.357-24.766-99.56-23.033-152.436,15.85    c-38.14,27.986-62.906,70.583-71.079,121.354c-6.192,38.759-0.371,79.004,14.984,114.915    c15.603,36.654,40.988,68.974,73.06,92.749c34.673,25.881,76.527,40.864,119.621,44.084c6.315,0.495,12.755,0.743,19.07,0.743    C432.624,462.024,506.18,333.736,490.33,190.959z"/>
		
			<radialGradient id="SVGID_00000138571922070518110390000011452940624800602253_" cx="-6438.8262" cy="7330.9971" r="271.3199" gradientTransform="matrix(0.2371 0.9291 0.9299 -0.2373 -5017.0649 8004.2314)" gradientUnits="userSpaceOnUse">
			<stop offset="0.2159" style="stop-color:#FF3450;stop-opacity:0.8"/>
			<stop offset="0.2702" style="stop-color:#FF424A;stop-opacity:0.6316"/>
			<stop offset="0.4739" style="stop-color:#FF7232;stop-opacity:0"/>
		</radialGradient>
		<path style="opacity:0.53;fill:url(#SVGID_00000138571922070518110390000011452940624800602253_);enable-background:new    ;" d="    M490.33,190.959c-8.297-74.546-50.152-125.441-103.646-155.16c-8.916-4.953-20.184-2.848-26.624,5.077L359.936,41    c60.925,37.521,99.312,104.018,101.294,173.363c2.353,84.329-66.869,151.569-146.616,155.408    c-57.953,2.848-112.562-25.138-139.31-81.233c-5.944-12.507-10.278-25.138-12.507-40.493    C150.166,162.849,207.5,90.16,260.128,72.081c-28.357-24.766-99.56-23.033-152.436,15.85    c-38.14,27.986-62.906,70.583-71.079,121.354c-6.192,38.759-0.371,79.004,14.984,114.915    c15.603,36.654,40.988,68.974,73.06,92.749c34.673,25.881,76.527,40.864,119.621,44.084c6.315,0.495,12.755,0.743,19.07,0.743    C432.624,462.024,506.18,333.736,490.33,190.959z"/>
	</g>
	<g>
		
			<radialGradient id="SVGID_00000136383201670857528300000016024786496302763419_" cx="-786.8399" cy="11686.8535" r="950.4499" gradientTransform="matrix(0.9589 0 0 -0.9589 1308.9861 11226.8125)" gradientUnits="userSpaceOnUse">
			<stop offset="0.0536" style="stop-color:#FFF339"/>
			<stop offset="0.4573" style="stop-color:#FF9800"/>
			<stop offset="0.5211" style="stop-color:#FF840D"/>
			<stop offset="0.5871" style="stop-color:#FF772B"/>
			<stop offset="0.6393" style="stop-color:#FF7232"/>
		</radialGradient>
		<path style="fill:url(#SVGID_00000136383201670857528300000016024786496302763419_);" d="M360.307,40.628    c-0.124,0.124-0.124,0.248-0.248,0.371c-7.306,9.04-5.82,22.166,3.096,29.596c38.388,31.453,64.144,76.156,64.144,127.793    c0,71.327-55.229,125.688-119.868,121.849c-96.093-5.82-120.24-104.018-70.336-146.492c-13.498-2.848-38.759,2.724-56.467,29.1    c-15.85,23.652-14.984,60.058-5.201,85.939c26.747,55.972,81.357,84.7,139.31,81.233    c109.466-6.687,156.275-96.959,159.246-161.228c3.22-69.717-12.507-131.508-87.053-173.115    C377.891,30.598,366.746,32.703,360.307,40.628z"/>
	</g>
	<g>
		
			<linearGradient id="SVGID_00000104667747726913379810000012432145660297727416_" gradientUnits="userSpaceOnUse" x1="377.7733" y1="11346.3936" x2="116.4809" y2="10893.8223" gradientTransform="matrix(1 0 0 -1 0 11392.1104)">
			<stop offset="0" style="stop-color:#FFF339;stop-opacity:0.8"/>
			<stop offset="0.75" style="stop-color:#FFF339;stop-opacity:0"/>
		</linearGradient>
		<path style="fill:url(#SVGID_00000104667747726913379810000012432145660297727416_);" d="M460.362,100.81    c-6.811-9.04-14.364-17.46-22.289-25.385c-6.315-6.687-13.126-12.878-20.308-18.698c4.086,3.591,8.049,7.43,11.888,11.392    c13.869,14.984,24.89,32.691,31.205,52.009c13.374,40.369,12.507,91.016-13.002,130.642    c-30.462,47.303-79.995,70.707-133.49,69.593c-2.353,0-4.582,0-6.935-0.124c-96.093-5.82-120.24-104.018-70.336-146.492    c-13.498-2.848-38.759,2.724-56.467,29.1c-15.85,23.652-14.984,60.058-5.201,85.939c-5.944-12.507-10.278-25.138-12.507-40.493    c-12.631-85.196,44.703-157.884,97.331-175.964c-28.357-24.766-99.56-23.033-152.436,15.85    C76.982,110.84,54.94,143.036,43.3,181.424c1.734-21.547,9.906-53.619,26.624-86.558c-17.708,9.163-40.245,38.14-51.39,64.887    C2.436,198.389-3.136,244.577,1.941,288.537c0.371,3.343,0.743,6.563,1.114,9.906C23.611,419.303,128.991,511.433,255.67,511.433    c141.539,0,256.33-114.791,256.33-256.33C511.876,197.15,492.682,143.779,460.362,100.81z"/>
	</g>
	<g>
		<g>
			
				<linearGradient id="SVGID_00000034791015616320821110000008111415578909107608_" gradientUnits="userSpaceOnUse" x1="-963.9509" y1="11603.1396" x2="-963.9509" y2="11921.1748" gradientTransform="matrix(1 0 0 -1 1258.4413 11925)">
				<stop offset="0" style="stop-color:#008EE9"/>
				<stop offset="0.1016" style="stop-color:#1982EE"/>
				<stop offset="0.3885" style="stop-color:#8565FD"/>
				<stop offset="0.5309" style="stop-color:#A059FF"/>
				<stop offset="0.6915" style="stop-color:#B24FFB"/>
				<stop offset="0.9888" style="stop-color:#DD37EB"/>
				<stop offset="1" style="stop-color:#DF36EA"/>
			</linearGradient>
			<path style="fill:url(#SVGID_00000034791015616320821110000008111415578909107608_);" d="M460.858,120.127     c-6.439-19.318-17.336-37.025-31.205-52.009c-29.719-31.948-73.432-52.38-115.534-61.668     c-35.416-7.801-72.565-7.678-105.999-0.619c-36.406,7.678-68.355,23.404-88.539,42.969     c69.841-40.864,163.952-33.31,228.344,12.507c10.773,7.678,20.804,16.47,29.843,26.128     c42.845,46.189,60.306,123.335,24.271,178.812c-18.079,28.11-56.962,54.362-93.245,54.114     c55.6,2.972,107.485-20.556,138.938-69.469C473.365,211.143,474.232,160.496,460.858,120.127z"/>
		</g>
	</g>
	<g>
		<g>
			
				<linearGradient id="SVGID_00000006686372153488679340000002387483363242446260_" gradientUnits="userSpaceOnUse" x1="-1019.8821" y1="11932.7568" x2="-846.3738" y2="11632.2314" gradientTransform="matrix(1 0 0 -1 1258.4413 11925)">
				<stop offset="0.8054" style="stop-color:#A059FF;stop-opacity:0"/>
				<stop offset="1" style="stop-color:#80008E;stop-opacity:0.5"/>
			</linearGradient>
			<path style="fill:url(#SVGID_00000006686372153488679340000002387483363242446260_);" d="M460.858,120.127     c-6.439-19.318-17.336-37.025-31.205-52.009c-29.719-31.948-73.432-52.38-115.534-61.668     c-35.416-7.801-72.565-7.678-105.999-0.619c-36.406,7.678-68.355,23.404-88.539,42.969     c69.841-40.864,163.952-33.31,228.344,12.507c10.773,7.678,20.804,16.47,29.843,26.128     c42.845,46.189,60.306,123.335,24.271,178.812c-18.079,28.11-56.962,54.362-93.245,54.114     c55.6,2.972,107.485-20.556,138.938-69.469C473.365,211.143,474.232,160.496,460.858,120.127z"/>
		</g>
	</g>
</g>















</svg>
